<svg xmlns="http://www.w3.org/2000/svg" xmlns:xlink="http://www.w3.org/1999/xlink" fill="black" version="1.1" x="0px" y="0px" viewBox="0 0 100 125" enable-background="new 0 0 100 100" xml:space="preserve">
    <path d="M72.646,39.978h-6.859V33.15h-0.013c3.348-2.018,5.445-5.542,5.445-9.472c0-6.194-5.295-11.234-11.802-11.234  c-1.022,0-2.035,0.123-3.013,0.37c-0.322,0.084-0.643-0.027-0.824-0.277c-2.811-3.921-7.463-6.26-12.45-6.26  c-6.445,0-12.172,3.894-14.256,9.692c-0.132,0.37-0.48,0.595-0.846,0.542c-0.467-0.066-0.943-0.102-1.414-0.102  c-5.357,0-9.709,4.15-9.709,9.251c0,3.639,2.211,6.793,5.427,8.3v49.86l-3.119,3.682c-0.982,1.159-1.189,2.824-0.529,4.252  c0.573,1.234,1.661,1.969,2.912,1.969h44.926c1.251,0,2.344-0.735,2.916-1.974c0.656-1.423,0.449-3.088-0.529-4.247l-3.123-3.682  V71.256h6.859c4.313,0,7.824-3.511,7.824-7.824v-15.63C80.47,43.489,76.959,39.978,72.646,39.978z M65.787,47.714h6.282  c0.502,0,0.912,0.41,0.912,0.912v13.982c0,0.502-0.41,0.912-0.912,0.912h-6.282V47.714z M19.108,25.66  c0-3.886,3.366-7.048,7.507-7.048c0.366,0,0.736,0.026,1.101,0.079c1.392,0.198,2.749-0.634,3.234-1.982  c1.767-4.921,6.661-8.229,12.181-8.229c4.278,0,8.264,1.996,10.661,5.344c0.709,0.987,1.947,1.432,3.15,1.127  c0.802-0.202,1.634-0.304,2.476-0.304c5.291,0,9.599,4.053,9.599,9.031c0,3.969-2.705,7.432-6.723,8.617  c-0.093,0.027-0.185,0.053-0.273,0.079c-0.084,0.022-0.172,0.044-0.256,0.062l-0.15,0.035c-0.026,0.004-0.057,0.013-0.088,0.018  c-2.308,0-4.185,1.877-4.185,4.185v1.322v1.321v7.489c0,1.092-0.89,1.982-1.982,1.982s-1.982-0.89-1.982-1.982v-9.251v-0.881v-1.762  c0-2.309-1.877-4.185-4.185-4.185c-2.159,0-3.943,1.643-4.163,3.745h-0.022v0.441v2.643v1.322c0,1.092-0.89,1.982-1.982,1.982  c-1.093,0-1.982-0.89-1.982-1.982V35.59v-0.238h-0.009c-0.123-1.476-1.361-2.643-2.872-2.643l-11.335-0.013  c-0.048,0.004-0.097,0.004-0.15,0.009l-0.062,0.004c-0.648,0-1.273-0.079-1.877-0.225C21.505,31.704,19.108,28.938,19.108,25.66z"/>
</svg>