<svg xmlns="http://www.w3.org/2000/svg" xmlns:xlink="http://www.w3.org/1999/xlink" version="1.1" x="0px" y="0px" viewBox="0 0 100 80" enable-background="new 0 0 100 100" xml:space="preserve"><path d="M57.332,53.895H42.668c-9.841,0-17.82,7.977-17.82,17.818v1.575c0,2.072,1.68,3.754,3.753,3.754h42.795  c2.075,0,3.754-1.681,3.754-3.754v-1.575C75.15,61.872,67.173,53.895,57.332,53.895z"/><path d="M49.999,50.11c7.499,0,13.578-6.076,13.578-13.575c0-7.498-6.079-13.578-13.578-13.578c-7.498,0-13.578,6.08-13.578,13.578  C36.422,44.034,42.502,50.11,49.999,50.11z"/><path d="M81.474,50.676h-9.371c-2.552,0-4.787,0.997-6.685,2.413c5.352,2.267,9.445,6.814,11.269,12.381h13.776  c1.326,0,2.399-1.075,2.399-2.4v-1.007C92.862,55.773,87.763,50.676,81.474,50.676z"/><path d="M76.788,48.257c4.792,0,8.677-3.884,8.677-8.676s-3.885-8.677-8.677-8.677c-4.792,0-8.677,3.885-8.677,8.677  S71.996,48.257,76.788,48.257z"/><path d="M34.583,53.089c-1.898-1.417-4.135-2.413-6.685-2.413h-9.372c-6.288,0-11.387,5.097-11.387,11.387v1.007  c0,1.326,1.073,2.4,2.399,2.4h13.776C25.137,59.903,29.229,55.356,34.583,53.089z"/><path d="M23.211,48.257c4.792,0,8.677-3.884,8.677-8.676s-3.885-8.677-8.677-8.677s-8.677,3.885-8.677,8.677  S18.419,48.257,23.211,48.257z"/><text x="0" y="115" fill="#000000" font-size="5px" font-weight="bold" font-family="'Helvetica Neue', Helvetica, Arial-Unicode, Arial, Sans-serif">Created by Rizalwale</text><text x="0" y="120" fill="#000000" font-size="5px" font-weight="bold" font-family="'Helvetica Neue', Helvetica, Arial-Unicode, Arial, Sans-serif">from the Noun Project</text></svg>