<svg xmlns:dc="http://purl.org/dc/elements/1.1/" xmlns:cc="http://creativecommons.org/ns#" xmlns:rdf="http://www.w3.org/1999/02/22-rdf-syntax-ns#" xmlns:svg="http://www.w3.org/2000/svg" xmlns="http://www.w3.org/2000/svg" xmlns:sodipodi="http://sodipodi.sourceforge.net/DTD/sodipodi-0.dtd" xmlns:inkscape="http://www.inkscape.org/namespaces/inkscape" version="1.1" x="0px" y="0px" viewBox="0 0 100 125"><g transform="translate(0,-952.36218)">
    <path d="m 35.429708,956.86218 c -0.9902,-0.004 -1.9079,0.82662 -2.0008,1.8125 -2.0547,22.60085 3.9942,55.59382 3.0012,86.37502 0.1814,1.8244 1.5607,2.1384 3.0013,2.375 3.661601,0.3992 7.677101,0.4349 11.036001,0.4375 3.8237,-0.031 7.3991,-0.053 11.0046,-0.4375 1.8375,-0.1864 2.6072,-0.7007 3.0325,-2.375 -0.9943,-30.8242 4.0501,-63.8342 2.0008,-86.37502 -0.093,-0.98588 -1.0106,-1.81678 -2.0008,-1.8125 z m 1.9071,4.03125 25.260701,0 c 0.1591,2.2013 0.2376,4.53012 0.2813,6.9375 -4.0712,1.32048 -8.0403,0.52672 -12.4741,-0.40625 -4.571,-0.96607 -9.053201,-1.65483 -13.286801,-0.65625 0.033,-2.02593 0.088,-4.00163 0.2189,-5.875 z m 3.1263,80.49997 20.008501,0 c 0.012,0.6958 0.013,1.3993 0.031,2.0938 -3.3111,0.3363 -7.0132,0.3723 -10.0354,0.375 -3.4547,-0.039 -6.7927,-0.039 -10.035601,-0.375 0.017,-0.6953 0.021,-1.3971 0.031,-2.0938 z" style="text-indent:0;text-transform:none;direction:ltr;block-progression:tb;baseline-shift:baseline;color:#000000;enable-background:accumulate;" fill="#000000" fill-opacity="1" stroke="none" marker="none" visibility="visible" display="inline" overflow="visible"/>
    </g>
</svg>